<?xml version="1.0" encoding="UTF-8" standalone="no"?>
<!DOCTYPE svg PUBLIC "-//W3C//DTD SVG 1.1//EN"
 "http://www.w3.org/Graphics/SVG/1.1/DTD/svg11.dtd">
<!-- Generated by graphviz version 2.43.0 (0)
 -->
<!-- Title: DenyConfirmed Pages: 1 -->
<svg width="578pt" height="341pt"
 viewBox="0.00 0.00 578.00 341.00" xmlns="http://www.w3.org/2000/svg" xmlns:xlink="http://www.w3.org/1999/xlink">
<g id="graph0" class="graph" transform="scale(1 1) rotate(0) translate(4 337)">
<title>DenyConfirmed</title>
<polygon fill="#0a0e12" stroke="transparent" points="-4,4 -4,-337 574,-337 574,4 -4,4"/>
<text text-anchor="middle" x="285" y="-314.6" font-family="Helvetica,sans-Serif" font-size="18.00" fill="#dfe6ee">Production test 1: approvals.deny — CONFIRMED WORKING</text>
<!-- cmd -->
<g id="node1" class="node">
<title>cmd</title>
<polygon fill="#1a1f26" stroke="#556070" stroke-width="1.5" points="278,-296.5 0,-296.5 0,-260.5 278,-260.5 278,-296.5"/>
<text text-anchor="middle" x="139" y="-274.8" font-family="Helvetica,sans-Serif" font-size="14.00" fill="#dfe6ee">hermes &#45;z &quot;run: rm &#45;rf test_deny_dir/&quot;</text>
</g>
<!-- gate -->
<g id="node2" class="node">
<title>gate</title>
<polygon fill="#152a3a" stroke="#39d0ff" stroke-width="1.5" points="370,-216 202,-216 202,-178 370,-178 370,-216"/>
<text text-anchor="middle" x="286" y="-200.8" font-family="Helvetica,sans-Serif" font-size="14.00" fill="#dfe6ee">approvals.deny check</text>
<text text-anchor="middle" x="286" y="-185.8" font-family="Helvetica,sans-Serif" font-size="14.00" fill="#dfe6ee">(&quot;rm &#45;rf */&quot; glob)</text>
</g>
<!-- cmd&#45;&gt;gate -->
<g id="edge1" class="edge">
<title>cmd&#45;&gt;gate</title>
<path fill="none" stroke="#556070" d="M170.54,-260.45C191.84,-248.93 220.21,-233.58 243.5,-220.99"/>
<polygon fill="#556070" stroke="#556070" points="245.34,-223.97 252.47,-216.13 242.01,-217.81 245.34,-223.97"/>
</g>
<!-- blocked -->
<g id="node3" class="node">
<title>blocked</title>
<polygon fill="#0f2a20" stroke="#39ffb0" stroke-width="2.5" points="407.5,-142 164.5,-142 164.5,-74 407.5,-74 407.5,-142"/>
<text text-anchor="middle" x="286" y="-126.8" font-family="Helvetica,sans-Serif" font-size="14.00" fill="#dfe6ee">BLOCKED: matches user&#45;defined</text>
<text text-anchor="middle" x="286" y="-111.8" font-family="Helvetica,sans-Serif" font-size="14.00" fill="#dfe6ee">deny rule &#39;rm &#45;rf */&#39;.</text>
<text text-anchor="middle" x="286" y="-96.8" font-family="Helvetica,sans-Serif" font-size="14.00" fill="#dfe6ee">Not bypassable — not &#45;&#45;yolo,</text>
<text text-anchor="middle" x="286" y="-81.8" font-family="Helvetica,sans-Serif" font-size="14.00" fill="#dfe6ee">not /yolo, not mode=off.</text>
</g>
<!-- gate&#45;&gt;blocked -->
<g id="edge2" class="edge">
<title>gate&#45;&gt;blocked</title>
<path fill="none" stroke="#556070" d="M286,-177.97C286,-170.45 286,-161.36 286,-152.28"/>
<polygon fill="#556070" stroke="#556070" points="289.5,-152.12 286,-142.12 282.5,-152.12 289.5,-152.12"/>
</g>
<!-- intact -->
<g id="node4" class="node">
<title>intact</title>
<polygon fill="#0f2a20" stroke="#39ffb0" stroke-width="1.5" points="385.5,-38 186.5,-38 186.5,0 385.5,0 385.5,-38"/>
<text text-anchor="middle" x="286" y="-22.8" font-family="Helvetica,sans-Serif" font-size="14.00" fill="#dfe6ee">Target directory confirmed</text>
<text text-anchor="middle" x="286" y="-7.8" font-family="Helvetica,sans-Serif" font-size="14.00" fill="#dfe6ee">intact afterward</text>
</g>
<!-- blocked&#45;&gt;intact -->
<g id="edge3" class="edge">
<title>blocked&#45;&gt;intact</title>
<path fill="none" stroke="#556070" d="M286,-73.61C286,-65.22 286,-56.29 286,-48.17"/>
<polygon fill="#556070" stroke="#556070" points="289.5,-48.09 286,-38.09 282.5,-48.09 289.5,-48.09"/>
</g>
<!-- origin -->
<g id="node5" class="node">
<title>origin</title>
<polygon fill="#3a2a08" stroke="#ffa93a" stroke-width="1.5" points="570,-305 296,-305 296,-252 570,-252 570,-305"/>
<text text-anchor="middle" x="433" y="-289.8" font-family="Helvetica,sans-Serif" font-size="14.00" fill="#fff3da">This is the exact rule added to close</text>
<text text-anchor="middle" x="433" y="-274.8" font-family="Helvetica,sans-Serif" font-size="14.00" fill="#fff3da">the hardline&#45;blocklist gap that let the</text>
<text text-anchor="middle" x="433" y="-259.8" font-family="Helvetica,sans-Serif" font-size="14.00" fill="#fff3da">original rm &#45;rf incident happen</text>
</g>
<!-- origin&#45;&gt;gate -->
<g id="edge4" class="edge">
<title>origin&#45;&gt;gate</title>
<path fill="none" stroke="#ffa93a" stroke-dasharray="1,5" d="M385.68,-251.91C367.38,-242.01 346.6,-230.77 328.76,-221.12"/>
<polygon fill="#ffa93a" stroke="#ffa93a" points="330.19,-217.92 319.72,-216.24 326.86,-224.07 330.19,-217.92"/>
</g>
</g>
</svg>
