<?xml version="1.0" encoding="UTF-8" standalone="no"?>
<!DOCTYPE svg PUBLIC "-//W3C//DTD SVG 1.1//EN"
 "http://www.w3.org/Graphics/SVG/1.1/DTD/svg11.dtd">
<!-- Generated by graphviz version 2.43.0 (0)
 -->
<!-- Title: IncidentTimeline Pages: 1 -->
<svg width="489pt" height="745pt"
 viewBox="0.00 0.00 489.00 745.00" xmlns="http://www.w3.org/2000/svg" xmlns:xlink="http://www.w3.org/1999/xlink">
<g id="graph0" class="graph" transform="scale(1 1) rotate(0) translate(4 741)">
<title>IncidentTimeline</title>
<polygon fill="#0a0e12" stroke="transparent" points="-4,4 -4,-741 485,-741 485,4 -4,4"/>
<text text-anchor="middle" x="240.5" y="-715.4" font-family="Helvetica,sans-Serif" font-size="22.00" fill="#dfe6ee">Incident Timeline — 2026&#45;09&#45;15 (the&#45;box)</text>
<!-- t0852 -->
<g id="node1" class="node">
<title>t0852</title>
<polygon fill="#0f2a20" stroke="#39ffb0" stroke-width="1.5" points="428.5,-705 52.5,-705 52.5,-652 428.5,-652 428.5,-705"/>
<text text-anchor="middle" x="240.5" y="-689.8" font-family="Helvetica,sans-Serif" font-size="14.00" fill="#dfe6ee">08:52–10:42</text>
<text text-anchor="middle" x="240.5" y="-674.8" font-family="Helvetica,sans-Serif" font-size="14.00" fill="#dfe6ee">Hermes writes 24 research files</text>
<text text-anchor="middle" x="240.5" y="-659.8" font-family="Helvetica,sans-Serif" font-size="14.00" fill="#dfe6ee">under hermes&#45;sessions/ai_earning_avatar_research/</text>
</g>
<!-- t1045 -->
<g id="node2" class="node">
<title>t1045</title>
<polygon fill="#2a1010" stroke="#ff4d4d" stroke-width="1.5" points="427.5,-616 53.5,-616 53.5,-578 427.5,-578 427.5,-616"/>
<text text-anchor="middle" x="240.5" y="-600.8" font-family="Helvetica,sans-Serif" font-size="14.00" fill="#ffdada">10:45:28</text>
<text text-anchor="middle" x="240.5" y="-585.8" font-family="Helvetica,sans-Serif" font-size="14.00" fill="#ffdada">rm &#45;f experiment_ledger.json toy_earning_avatar.py</text>
</g>
<!-- t0852&#45;&gt;t1045 -->
<g id="edge1" class="edge">
<title>t0852&#45;&gt;t1045</title>
<path fill="none" stroke="#556070" d="M240.5,-651.91C240.5,-643.74 240.5,-634.65 240.5,-626.3"/>
<polygon fill="#556070" stroke="#556070" points="244,-626.24 240.5,-616.24 237,-626.24 244,-626.24"/>
</g>
<!-- t1046a -->
<g id="node3" class="node">
<title>t1046a</title>
<polygon fill="#2a1010" stroke="#ff4d4d" stroke-width="1.5" points="370.5,-542 110.5,-542 110.5,-489 370.5,-489 370.5,-542"/>
<text text-anchor="middle" x="240.5" y="-526.8" font-family="Helvetica,sans-Serif" font-size="14.00" fill="#ffdada">10:46:24</text>
<text text-anchor="middle" x="240.5" y="-511.8" font-family="Helvetica,sans-Serif" font-size="14.00" fill="#ffdada">rm &#45;rf ai_earning_avatar_research</text>
<text text-anchor="middle" x="240.5" y="-496.8" font-family="Helvetica,sans-Serif" font-size="14.00" fill="#ffdada">(auto&#45;approved by smart approval)</text>
</g>
<!-- t1045&#45;&gt;t1046a -->
<g id="edge2" class="edge">
<title>t1045&#45;&gt;t1046a</title>
<path fill="none" stroke="#556070" d="M240.5,-577.96C240.5,-570.32 240.5,-561.14 240.5,-552.23"/>
<polygon fill="#556070" stroke="#556070" points="244,-552 240.5,-542 237,-552 244,-552"/>
</g>
<!-- t1046b -->
<g id="node4" class="node">
<title>t1046b</title>
<polygon fill="#3a0d0d" stroke="#ff4d4d" stroke-width="1.5" points="425.5,-453 55.5,-453 55.5,-415 425.5,-415 425.5,-453"/>
<text text-anchor="middle" x="240.5" y="-437.8" font-family="Helvetica,sans-Serif" font-size="14.00" fill="#ffdada">10:46:54</text>
<text text-anchor="middle" x="240.5" y="-422.8" font-family="Helvetica,sans-Serif" font-size="14.00" fill="#ffdada">rm &#45;rf hermes&#45;sessions/ai_earning_avatar_research</text>
</g>
<!-- t1046a&#45;&gt;t1046b -->
<g id="edge3" class="edge">
<title>t1046a&#45;&gt;t1046b</title>
<path fill="none" stroke="#556070" d="M240.5,-488.91C240.5,-480.74 240.5,-471.65 240.5,-463.3"/>
<polygon fill="#556070" stroke="#556070" points="244,-463.24 240.5,-453.24 237,-463.24 244,-463.24"/>
</g>
<!-- t1047 -->
<g id="node5" class="node">
<title>t1047</title>
<polygon fill="#4a0808" stroke="#ff4d4d" stroke-width="2.5" points="438,-379 43,-379 43,-326 438,-326 438,-379"/>
<text text-anchor="middle" x="240.5" y="-363.8" font-family="Helvetica,sans-Serif" font-size="14.00" fill="#fff0f0">10:47:41</text>
<text text-anchor="middle" x="240.5" y="-348.8" font-family="Helvetica,sans-Serif" font-size="14.00" fill="#fff0f0">rm &#45;rf hermes&#45;sessions &#160;← FULL TREE WIPE #1</text>
<text text-anchor="middle" x="240.5" y="-333.8" font-family="Helvetica,sans-Serif" font-size="14.00" fill="#fff0f0">git repo + PDFs + audio papers + 4 old sessions gone</text>
</g>
<!-- t1046b&#45;&gt;t1047 -->
<g id="edge4" class="edge">
<title>t1046b&#45;&gt;t1047</title>
<path fill="none" stroke="#556070" d="M240.5,-414.96C240.5,-407.32 240.5,-398.14 240.5,-389.23"/>
<polygon fill="#556070" stroke="#556070" points="244,-389 240.5,-379 237,-389 244,-389"/>
</g>
<!-- t1048 -->
<g id="node6" class="node">
<title>t1048</title>
<polygon fill="#4a0808" stroke="#ff4d4d" stroke-width="2.5" points="411.5,-290 69.5,-290 69.5,-252 411.5,-252 411.5,-290"/>
<text text-anchor="middle" x="240.5" y="-274.8" font-family="Helvetica,sans-Serif" font-size="14.00" fill="#fff0f0">10:48:11</text>
<text text-anchor="middle" x="240.5" y="-259.8" font-family="Helvetica,sans-Serif" font-size="14.00" fill="#fff0f0">rm &#45;rf hermes&#45;sessions &#160;← FULL TREE WIPE #2</text>
</g>
<!-- t1047&#45;&gt;t1048 -->
<g id="edge5" class="edge">
<title>t1047&#45;&gt;t1048</title>
<path fill="none" stroke="#556070" d="M240.5,-325.91C240.5,-317.74 240.5,-308.65 240.5,-300.3"/>
<polygon fill="#556070" stroke="#556070" points="244,-300.24 240.5,-290.24 237,-300.24 244,-300.24"/>
</g>
<!-- t1051 -->
<g id="node7" class="node">
<title>t1051</title>
<polygon fill="#4a0808" stroke="#ff4d4d" stroke-width="2.5" points="411.5,-216 69.5,-216 69.5,-178 411.5,-178 411.5,-216"/>
<text text-anchor="middle" x="240.5" y="-200.8" font-family="Helvetica,sans-Serif" font-size="14.00" fill="#fff0f0">10:51:31</text>
<text text-anchor="middle" x="240.5" y="-185.8" font-family="Helvetica,sans-Serif" font-size="14.00" fill="#fff0f0">rm &#45;rf hermes&#45;sessions &#160;← FULL TREE WIPE #3</text>
</g>
<!-- t1048&#45;&gt;t1051 -->
<g id="edge6" class="edge">
<title>t1048&#45;&gt;t1051</title>
<path fill="none" stroke="#556070" d="M240.5,-251.83C240.5,-244.13 240.5,-234.97 240.5,-226.42"/>
<polygon fill="#556070" stroke="#556070" points="244,-226.41 240.5,-216.41 237,-226.41 244,-226.41"/>
</g>
<!-- t1056 -->
<g id="node8" class="node">
<title>t1056</title>
<polygon fill="#152a3a" stroke="#39d0ff" stroke-width="1.5" points="439.5,-142 41.5,-142 41.5,-89 439.5,-89 439.5,-142"/>
<text text-anchor="middle" x="240.5" y="-126.8" font-family="Helvetica,sans-Serif" font-size="14.00" fill="#dff6ff">10:56:14</text>
<text text-anchor="middle" x="240.5" y="-111.8" font-family="Helvetica,sans-Serif" font-size="14.00" fill="#dff6ff">User notices:</text>
<text text-anchor="middle" x="240.5" y="-96.8" font-family="Helvetica,sans-Serif" font-size="14.00" fill="#dff6ff">&quot;we appear to have accidentally deleted all prior work&quot;</text>
</g>
<!-- t1051&#45;&gt;t1056 -->
<g id="edge7" class="edge">
<title>t1051&#45;&gt;t1056</title>
<path fill="none" stroke="#556070" d="M240.5,-177.96C240.5,-170.32 240.5,-161.14 240.5,-152.23"/>
<polygon fill="#556070" stroke="#556070" points="244,-152 240.5,-142 237,-152 244,-152"/>
</g>
<!-- t1058 -->
<g id="node9" class="node">
<title>t1058</title>
<polygon fill="#0f2a20" stroke="#39ffb0" stroke-width="1.5" points="375,-53 106,-53 106,0 375,0 375,-53"/>
<text text-anchor="middle" x="240.5" y="-37.8" font-family="Helvetica,sans-Serif" font-size="14.00" fill="#dfe6ee">10:58</text>
<text text-anchor="middle" x="240.5" y="-22.8" font-family="Helvetica,sans-Serif" font-size="14.00" fill="#dfe6ee">research_repackage/ created —</text>
<text text-anchor="middle" x="240.5" y="-7.8" font-family="Helvetica,sans-Serif" font-size="14.00" fill="#dfe6ee">only 1 of 24 files had been rewritten</text>
</g>
<!-- t1056&#45;&gt;t1058 -->
<g id="edge8" class="edge">
<title>t1056&#45;&gt;t1058</title>
<path fill="none" stroke="#556070" d="M240.5,-88.87C240.5,-80.89 240.5,-71.93 240.5,-63.38"/>
<polygon fill="#556070" stroke="#556070" points="244,-63.25 240.5,-53.25 237,-63.25 244,-63.25"/>
</g>
</g>
</svg>
