<?xml version="1.0" encoding="UTF-8" standalone="no"?>
<!DOCTYPE svg PUBLIC "-//W3C//DTD SVG 1.1//EN"
 "http://www.w3.org/Graphics/SVG/1.1/DTD/svg11.dtd">
<!-- Generated by graphviz version 2.43.0 (0)
 -->
<!-- Title: VerifiedNonBlocking Pages: 1 -->
<svg width="409pt" height="633pt"
 viewBox="0.00 0.00 409.00 633.00" xmlns="http://www.w3.org/2000/svg" xmlns:xlink="http://www.w3.org/1999/xlink">
<g id="graph0" class="graph" transform="scale(1 1) rotate(0) translate(4 629)">
<title>VerifiedNonBlocking</title>
<polygon fill="#0a0e12" stroke="transparent" points="-4,4 -4,-629 405,-629 405,4 -4,4"/>
<text text-anchor="middle" x="200.5" y="-608.2" font-family="Helvetica,sans-Serif" font-size="16.00" fill="#dfe6ee">Verified non&#45;blocking before reporting anything</text>
<!-- onDisk -->
<g id="node1" class="node">
<title>onDisk</title>
<polygon fill="#0f2a20" stroke="#39ffb0" stroke-width="1.5" points="361,-599 40,-599 40,-561 361,-561 361,-599"/>
<text text-anchor="middle" x="200.5" y="-583.8" font-family="Helvetica,sans-Serif" font-size="14.00" fill="#dfe6ee">utils.py on disk: file_signature</text>
<text text-anchor="middle" x="200.5" y="-568.8" font-family="Helvetica,sans-Serif" font-size="14.00" fill="#dfe6ee">genuinely present, confirmed by direct read</text>
</g>
<!-- freshVer -->
<g id="node2" class="node">
<title>freshVer</title>
<polygon fill="#0f2a20" stroke="#39ffb0" stroke-width="1.5" points="311,-525 90,-525 90,-489 311,-489 311,-525"/>
<text text-anchor="middle" x="200.5" y="-503.3" font-family="Helvetica,sans-Serif" font-size="14.00" fill="#dfe6ee">fresh hermes &#45;&#45;version: exit 0</text>
</g>
<!-- onDisk&#45;&gt;freshVer -->
<g id="edge1" class="edge">
<title>onDisk&#45;&gt;freshVer</title>
<path fill="none" stroke="#556070" d="M200.5,-560.72C200.5,-552.97 200.5,-543.79 200.5,-535.27"/>
<polygon fill="#556070" stroke="#556070" points="204,-535 200.5,-525 197,-535 204,-535"/>
</g>
<!-- freshZ -->
<g id="node3" class="node">
<title>freshZ</title>
<polygon fill="#0f2a20" stroke="#39ffb0" stroke-width="1.5" points="322,-453 79,-453 79,-415 322,-415 322,-453"/>
<text text-anchor="middle" x="200.5" y="-437.8" font-family="Helvetica,sans-Serif" font-size="14.00" fill="#dfe6ee">fresh hermes &#45;z one&#45;shot: exit 0,</text>
<text text-anchor="middle" x="200.5" y="-422.8" font-family="Helvetica,sans-Serif" font-size="14.00" fill="#dfe6ee">correct output</text>
</g>
<!-- freshVer&#45;&gt;freshZ -->
<g id="edge2" class="edge">
<title>freshVer&#45;&gt;freshZ</title>
<path fill="none" stroke="#556070" d="M200.5,-488.81C200.5,-481.11 200.5,-471.82 200.5,-463.15"/>
<polygon fill="#556070" stroke="#556070" points="204,-463.02 200.5,-453.02 197,-463.02 204,-463.02"/>
</g>
<!-- gwStatus -->
<g id="node4" class="node">
<title>gwStatus</title>
<polygon fill="#0f2a20" stroke="#39ffb0" stroke-width="1.5" points="350,-379 51,-379 51,-326 350,-326 350,-379"/>
<text text-anchor="middle" x="200.5" y="-363.8" font-family="Helvetica,sans-Serif" font-size="14.00" fill="#dfe6ee">hermes gateway status:</text>
<text text-anchor="middle" x="200.5" y="-348.8" font-family="Helvetica,sans-Serif" font-size="14.00" fill="#dfe6ee">no gateway running (CLI&#45;only usage) —</text>
<text text-anchor="middle" x="200.5" y="-333.8" font-family="Helvetica,sans-Serif" font-size="14.00" fill="#dfe6ee">&quot;restart your gateway&quot; advice moot here</text>
</g>
<!-- freshZ&#45;&gt;gwStatus -->
<g id="edge3" class="edge">
<title>freshZ&#45;&gt;gwStatus</title>
<path fill="none" stroke="#556070" d="M200.5,-414.96C200.5,-407.32 200.5,-398.14 200.5,-389.23"/>
<polygon fill="#556070" stroke="#556070" points="204,-389 200.5,-379 197,-389 204,-389"/>
</g>
<!-- cfgIntact -->
<g id="node5" class="node">
<title>cfgIntact</title>
<polygon fill="#0f2a20" stroke="#39ffb0" stroke-width="1.5" points="351,-290 50,-290 50,-237 351,-237 351,-290"/>
<text text-anchor="middle" x="200.5" y="-274.8" font-family="Helvetica,sans-Serif" font-size="14.00" fill="#dfe6ee">This session&#39;s hardening survived the</text>
<text text-anchor="middle" x="200.5" y="-259.8" font-family="Helvetica,sans-Serif" font-size="14.00" fill="#dfe6ee">update&#39;s config migration untouched:</text>
<text text-anchor="middle" x="200.5" y="-244.8" font-family="Helvetica,sans-Serif" font-size="14.00" fill="#dfe6ee">docker backend, checkpoints, deny rules</text>
</g>
<!-- gwStatus&#45;&gt;cfgIntact -->
<g id="edge4" class="edge">
<title>gwStatus&#45;&gt;cfgIntact</title>
<path fill="none" stroke="#556070" d="M200.5,-325.87C200.5,-317.89 200.5,-308.93 200.5,-300.38"/>
<polygon fill="#556070" stroke="#556070" points="204,-300.25 200.5,-290.25 197,-300.25 204,-300.25"/>
</g>
<!-- sandboxOk -->
<g id="node6" class="node">
<title>sandboxOk</title>
<polygon fill="#0f2a20" stroke="#39ffb0" stroke-width="1.5" points="338,-201 63,-201 63,-163 338,-163 338,-201"/>
<text text-anchor="middle" x="200.5" y="-185.8" font-family="Helvetica,sans-Serif" font-size="14.00" fill="#dfe6ee">Sandbox re&#45;verified post&#45;update:</text>
<text text-anchor="middle" x="200.5" y="-170.8" font-family="Helvetica,sans-Serif" font-size="14.00" fill="#dfe6ee">dot &#45;V still works inside the container</text>
</g>
<!-- cfgIntact&#45;&gt;sandboxOk -->
<g id="edge5" class="edge">
<title>cfgIntact&#45;&gt;sandboxOk</title>
<path fill="none" stroke="#556070" d="M200.5,-236.91C200.5,-228.74 200.5,-219.65 200.5,-211.3"/>
<polygon fill="#556070" stroke="#556070" points="204,-211.24 200.5,-201.24 197,-211.24 204,-211.24"/>
</g>
<!-- retryClean -->
<g id="node7" class="node">
<title>retryClean</title>
<polygon fill="#0f2a20" stroke="#39ffb0" stroke-width="2.5" points="305.5,-127 95.5,-127 95.5,-89 305.5,-89 305.5,-127"/>
<text text-anchor="middle" x="200.5" y="-111.8" font-family="Helvetica,sans-Serif" font-size="14.00" fill="#dfe6ee">Second hermes update run:</text>
<text text-anchor="middle" x="200.5" y="-96.8" font-family="Helvetica,sans-Serif" font-size="14.00" fill="#dfe6ee">completed cleanly, no error</text>
</g>
<!-- sandboxOk&#45;&gt;retryClean -->
<g id="edge6" class="edge">
<title>sandboxOk&#45;&gt;retryClean</title>
<path fill="none" stroke="#556070" d="M200.5,-162.83C200.5,-155.13 200.5,-145.97 200.5,-137.42"/>
<polygon fill="#556070" stroke="#556070" points="204,-137.41 200.5,-127.41 197,-137.41 204,-137.41"/>
</g>
<!-- conclusion -->
<g id="node8" class="node">
<title>conclusion</title>
<polygon fill="#152a3a" stroke="#39d0ff" stroke-width="2.5" points="360.5,-53 40.5,-53 40.5,0 360.5,0 360.5,-53"/>
<text text-anchor="middle" x="200.5" y="-37.8" font-family="Helvetica,sans-Serif" font-size="14.00" fill="#dfe6ee">Reported upstream as a real, low&#45;severity,</text>
<text text-anchor="middle" x="200.5" y="-22.8" font-family="Helvetica,sans-Serif" font-size="14.00" fill="#dfe6ee">non&#45;reproducing residual gap in an existing</text>
<text text-anchor="middle" x="200.5" y="-7.8" font-family="Helvetica,sans-Serif" font-size="14.00" fill="#dfe6ee">mitigation — not a live crisis</text>
</g>
<!-- retryClean&#45;&gt;conclusion -->
<g id="edge7" class="edge">
<title>retryClean&#45;&gt;conclusion</title>
<path fill="none" stroke="#556070" d="M200.5,-88.96C200.5,-81.32 200.5,-72.14 200.5,-63.23"/>
<polygon fill="#556070" stroke="#556070" points="204,-63 200.5,-53 197,-63 204,-63"/>
</g>
</g>
</svg>
